<svg xmlns="http://www.w3.org/2000/svg" version="1.1" xmlns:xlink="http://www.w3.org/1999/xlink" xmlns:svgjs="http://svgjs.dev/svgjs" width="1440" height="560" preserveAspectRatio="none" viewBox="0 0 1440 560"><g mask="url(&quot;#SvgjsMask1018&quot;)" fill="none"><rect width="1440" height="560" x="0" y="0" fill="rgba(4, 40, 65, 1)"></rect><path d="M0,514.221C99.948,529.052,222.005,526.216,290.352,451.797C360.043,375.915,294.4,247.585,332.718,151.947C368.093,63.654,504.709,23.093,500.181,-71.915C495.752,-164.842,373.123,-200.216,312.568,-270.842C251.576,-341.977,233.031,-461.047,143.325,-488.121C53.678,-515.177,-30.096,-433.891,-117.652,-400.686C-197.464,-370.418,-282.652,-356.395,-348.198,-301.715C-421.327,-240.708,-498.185,-167.827,-510.052,-73.334C-521.884,20.881,-458.753,105.817,-409.581,187.049C-365.201,260.365,-306.757,319.642,-239.796,373.13C-165.836,432.209,-93.634,500.327,0,514.221" fill="#031a2a"></path><path d="M1440 926.598C1510.042 913.826 1581.805 912.259 1643.041 875.9390000000001 1705.695 838.777 1750.996 781.498 1789.205 719.477 1831.798 650.3389999999999 1867.465 577.985 1876.328 497.265 1887.1 399.155 1920.083 273.212 1845.274 208.82799999999997 1767.255 141.68099999999998 1644.823 223.25099999999998 1542.725 210.14999999999998 1463.056 199.92700000000002 1396.986 133.89600000000002 1316.982 141.04000000000002 1229.525 148.85000000000002 1139.4470000000001 183.42000000000002 1083.5720000000001 251.15300000000002 1028.071 318.432 1039.422 414.503 1021.06 499.765 1001.077 592.558 939.402 684.686 970.928 774.218 1002.778 864.669 1091.851 930.188 1183.054 959.816 1266.888 987.05 1353.283 942.4110000000001 1440 926.598" fill="#053658"></path></g><defs><mask id="SvgjsMask1018"><rect width="1440" height="560" fill="#ffffff"></rect></mask></defs></svg>