<?xml version="1.0" standalone="no"?>
<svg xmlns:xlink="http://www.w3.org/1999/xlink" id="wave" style="transform:rotate(180deg); transition: 0.3s" viewBox="0 0 1440 210" version="1.1" xmlns="http://www.w3.org/2000/svg"><defs><linearGradient id="sw-gradient-0" x1="0" x2="0" y1="1" y2="0"><stop stop-color="rgba(2, 19, 30, 1)" offset="0%"/><stop stop-color="rgba(2, 19, 30, 1)" offset="100%"/></linearGradient></defs><path style="transform:translate(0, 0px); opacity:1" fill="url(#sw-gradient-0)" d="M0,189L18.5,189C36.9,189,74,189,111,161C147.7,133,185,77,222,77C258.5,77,295,133,332,150.5C369.2,168,406,147,443,122.5C480,98,517,70,554,52.5C590.8,35,628,28,665,28C701.5,28,738,35,775,49C812.3,63,849,84,886,80.5C923.1,77,960,49,997,45.5C1033.8,42,1071,63,1108,91C1144.6,119,1182,154,1218,171.5C1255.4,189,1292,189,1329,175C1366.2,161,1403,133,1440,119C1476.9,105,1514,105,1551,119C1587.7,133,1625,161,1662,154C1698.5,147,1735,105,1772,84C1809.2,63,1846,63,1883,73.5C1920,84,1957,105,1994,126C2030.8,147,2068,168,2105,154C2141.5,140,2178,91,2215,80.5C2252.3,70,2289,98,2326,91C2363.1,84,2400,42,2437,21C2473.8,0,2511,0,2548,31.5C2584.6,63,2622,126,2640,157.5L2658.5,189L2658.5,210L2640,210C2621.5,210,2585,210,2548,210C2510.8,210,2474,210,2437,210C2400,210,2363,210,2326,210C2289.2,210,2252,210,2215,210C2178.5,210,2142,210,2105,210C2067.7,210,2031,210,1994,210C1956.9,210,1920,210,1883,210C1846.2,210,1809,210,1772,210C1735.4,210,1698,210,1662,210C1624.6,210,1588,210,1551,210C1513.8,210,1477,210,1440,210C1403.1,210,1366,210,1329,210C1292.3,210,1255,210,1218,210C1181.5,210,1145,210,1108,210C1070.8,210,1034,210,997,210C960,210,923,210,886,210C849.2,210,812,210,775,210C738.5,210,702,210,665,210C627.7,210,591,210,554,210C516.9,210,480,210,443,210C406.2,210,369,210,332,210C295.4,210,258,210,222,210C184.6,210,148,210,111,210C73.8,210,37,210,18,210L0,210Z"/></svg>