<?xml version="1.0" standalone="no"?>
<svg xmlns:xlink="http://www.w3.org/1999/xlink" id="wave" style="transform:rotate(0deg); transition: 0.3s" viewBox="0 0 1440 210" version="1.1" xmlns="http://www.w3.org/2000/svg"><defs><linearGradient id="sw-gradient-0" x1="0" x2="0" y1="1" y2="0"><stop stop-color="rgba(2, 19, 30, 1)" offset="0%"/><stop stop-color="rgba(2, 19, 30, 1)" offset="100%"/></linearGradient></defs><path style="transform:translate(0, 0px); opacity:1" fill="url(#sw-gradient-0)" d="M0,189L34.3,189C68.6,189,137,189,206,161C274.3,133,343,77,411,77C480,77,549,133,617,150.5C685.7,168,754,147,823,122.5C891.4,98,960,70,1029,52.5C1097.1,35,1166,28,1234,28C1302.9,28,1371,35,1440,49C1508.6,63,1577,84,1646,80.5C1714.3,77,1783,49,1851,45.5C1920,42,1989,63,2057,91C2125.7,119,2194,154,2263,171.5C2331.4,189,2400,189,2469,175C2537.1,161,2606,133,2674,119C2742.9,105,2811,105,2880,119C2948.6,133,3017,161,3086,154C3154.3,147,3223,105,3291,84C3360,63,3429,63,3497,73.5C3565.7,84,3634,105,3703,126C3771.4,147,3840,168,3909,154C3977.1,140,4046,91,4114,80.5C4182.9,70,4251,98,4320,91C4388.6,84,4457,42,4526,21C4594.3,0,4663,0,4731,31.5C4800,63,4869,126,4903,157.5L4937.1,189L4937.1,210L4902.9,210C4868.6,210,4800,210,4731,210C4662.9,210,4594,210,4526,210C4457.1,210,4389,210,4320,210C4251.4,210,4183,210,4114,210C4045.7,210,3977,210,3909,210C3840,210,3771,210,3703,210C3634.3,210,3566,210,3497,210C3428.6,210,3360,210,3291,210C3222.9,210,3154,210,3086,210C3017.1,210,2949,210,2880,210C2811.4,210,2743,210,2674,210C2605.7,210,2537,210,2469,210C2400,210,2331,210,2263,210C2194.3,210,2126,210,2057,210C1988.6,210,1920,210,1851,210C1782.9,210,1714,210,1646,210C1577.1,210,1509,210,1440,210C1371.4,210,1303,210,1234,210C1165.7,210,1097,210,1029,210C960,210,891,210,823,210C754.3,210,686,210,617,210C548.6,210,480,210,411,210C342.9,210,274,210,206,210C137.1,210,69,210,34,210L0,210Z"/></svg>