<?xml version="1.0" standalone="no"?>
<svg xmlns:xlink="http://www.w3.org/1999/xlink" id="wave" style="transform:rotate(0deg); transition: 0.3s" viewBox="0 0 1440 160" version="1.1" xmlns="http://www.w3.org/2000/svg"><defs><linearGradient id="sw-gradient-0" x1="0" x2="0" y1="1" y2="0"><stop stop-color="rgba(0, 0, 0, 1)" offset="0%"/><stop stop-color="rgba(0, 0, 0, 1)" offset="100%"/></linearGradient></defs><path style="transform:translate(0, 0px); opacity:1" fill="url(#sw-gradient-0)" d="M0,144L17.1,144C34.3,144,69,144,103,122.7C137.1,101,171,59,206,58.7C240,59,274,101,309,114.7C342.9,128,377,112,411,93.3C445.7,75,480,53,514,40C548.6,27,583,21,617,21.3C651.4,21,686,27,720,37.3C754.3,48,789,64,823,61.3C857.1,59,891,37,926,34.7C960,32,994,48,1029,69.3C1062.9,91,1097,117,1131,130.7C1165.7,144,1200,144,1234,133.3C1268.6,123,1303,101,1337,90.7C1371.4,80,1406,80,1440,90.7C1474.3,101,1509,123,1543,117.3C1577.1,112,1611,80,1646,64C1680,48,1714,48,1749,56C1782.9,64,1817,80,1851,96C1885.7,112,1920,128,1954,117.3C1988.6,107,2023,69,2057,61.3C2091.4,53,2126,75,2160,69.3C2194.3,64,2229,32,2263,16C2297.1,0,2331,0,2366,24C2400,48,2434,96,2451,120L2468.6,144L2468.6,160L2451.4,160C2434.3,160,2400,160,2366,160C2331.4,160,2297,160,2263,160C2228.6,160,2194,160,2160,160C2125.7,160,2091,160,2057,160C2022.9,160,1989,160,1954,160C1920,160,1886,160,1851,160C1817.1,160,1783,160,1749,160C1714.3,160,1680,160,1646,160C1611.4,160,1577,160,1543,160C1508.6,160,1474,160,1440,160C1405.7,160,1371,160,1337,160C1302.9,160,1269,160,1234,160C1200,160,1166,160,1131,160C1097.1,160,1063,160,1029,160C994.3,160,960,160,926,160C891.4,160,857,160,823,160C788.6,160,754,160,720,160C685.7,160,651,160,617,160C582.9,160,549,160,514,160C480,160,446,160,411,160C377.1,160,343,160,309,160C274.3,160,240,160,206,160C171.4,160,137,160,103,160C68.6,160,34,160,17,160L0,160Z"/></svg>