<?xml version="1.0" standalone="no"?>
<svg xmlns:xlink="http://www.w3.org/1999/xlink" id="wave" style="transform:rotate(180deg); transition: 0.3s" viewBox="0 0 1440 160" version="1.1" xmlns="http://www.w3.org/2000/svg"><defs><linearGradient id="sw-gradient-0" x1="0" x2="0" y1="1" y2="0"><stop stop-color="rgba(0, 0, 0, 1)" offset="0%"/><stop stop-color="rgba(0, 0, 0, 1)" offset="100%"/></linearGradient></defs><path style="transform:translate(0, 0px); opacity:1" fill="url(#sw-gradient-0)" d="M0,144L12,144C24,144,48,144,72,122.7C96,101,120,59,144,58.7C168,59,192,101,216,114.7C240,128,264,112,288,93.3C312,75,336,53,360,40C384,27,408,21,432,21.3C456,21,480,27,504,37.3C528,48,552,64,576,61.3C600,59,624,37,648,34.7C672,32,696,48,720,69.3C744,91,768,117,792,130.7C816,144,840,144,864,133.3C888,123,912,101,936,90.7C960,80,984,80,1008,90.7C1032,101,1056,123,1080,117.3C1104,112,1128,80,1152,64C1176,48,1200,48,1224,56C1248,64,1272,80,1296,96C1320,112,1344,128,1368,117.3C1392,107,1416,69,1440,61.3C1464,53,1488,75,1512,69.3C1536,64,1560,32,1584,16C1608,0,1632,0,1656,24C1680,48,1704,96,1716,120L1728,144L1728,160L1716,160C1704,160,1680,160,1656,160C1632,160,1608,160,1584,160C1560,160,1536,160,1512,160C1488,160,1464,160,1440,160C1416,160,1392,160,1368,160C1344,160,1320,160,1296,160C1272,160,1248,160,1224,160C1200,160,1176,160,1152,160C1128,160,1104,160,1080,160C1056,160,1032,160,1008,160C984,160,960,160,936,160C912,160,888,160,864,160C840,160,816,160,792,160C768,160,744,160,720,160C696,160,672,160,648,160C624,160,600,160,576,160C552,160,528,160,504,160C480,160,456,160,432,160C408,160,384,160,360,160C336,160,312,160,288,160C264,160,240,160,216,160C192,160,168,160,144,160C120,160,96,160,72,160C48,160,24,160,12,160L0,160Z"/></svg>