<?xml version="1.0" standalone="no"?>
<svg xmlns:xlink="http://www.w3.org/1999/xlink" id="wave" style="transform:rotate(0deg); transition: 0.3s" viewBox="0 0 1440 180" version="1.1" xmlns="http://www.w3.org/2000/svg"><defs><linearGradient id="sw-gradient-0" x1="0" x2="0" y1="1" y2="0"><stop stop-color="rgba(3, 30, 49, 1)" offset="0%"/><stop stop-color="rgba(3, 30, 49, 1)" offset="100%"/></linearGradient></defs><path style="transform:translate(0, 0px); opacity:1" fill="url(#sw-gradient-0)" d="M0,162L24,162C48,162,96,162,144,138C192,114,240,66,288,66C336,66,384,114,432,129C480,144,528,126,576,105C624,84,672,60,720,45C768,30,816,24,864,24C912,24,960,30,1008,42C1056,54,1104,72,1152,69C1200,66,1248,42,1296,39C1344,36,1392,54,1440,78C1488,102,1536,132,1584,147C1632,162,1680,162,1728,150C1776,138,1824,114,1872,102C1920,90,1968,90,2016,102C2064,114,2112,138,2160,132C2208,126,2256,90,2304,72C2352,54,2400,54,2448,63C2496,72,2544,90,2592,108C2640,126,2688,144,2736,132C2784,120,2832,78,2880,69C2928,60,2976,84,3024,78C3072,72,3120,36,3168,18C3216,0,3264,0,3312,27C3360,54,3408,108,3432,135L3456,162L3456,180L3432,180C3408,180,3360,180,3312,180C3264,180,3216,180,3168,180C3120,180,3072,180,3024,180C2976,180,2928,180,2880,180C2832,180,2784,180,2736,180C2688,180,2640,180,2592,180C2544,180,2496,180,2448,180C2400,180,2352,180,2304,180C2256,180,2208,180,2160,180C2112,180,2064,180,2016,180C1968,180,1920,180,1872,180C1824,180,1776,180,1728,180C1680,180,1632,180,1584,180C1536,180,1488,180,1440,180C1392,180,1344,180,1296,180C1248,180,1200,180,1152,180C1104,180,1056,180,1008,180C960,180,912,180,864,180C816,180,768,180,720,180C672,180,624,180,576,180C528,180,480,180,432,180C384,180,336,180,288,180C240,180,192,180,144,180C96,180,48,180,24,180L0,180Z"/></svg>