<?xml version="1.0" standalone="no"?>
<svg xmlns:xlink="http://www.w3.org/1999/xlink" id="wave" style="transform:rotate(180deg); transition: 0.3s" viewBox="0 0 1440 180" version="1.1" xmlns="http://www.w3.org/2000/svg"><defs><linearGradient id="sw-gradient-0" x1="0" x2="0" y1="1" y2="0"><stop stop-color="rgba(3, 30, 49, 1)" offset="0%"/><stop stop-color="rgba(3, 30, 49, 1)" offset="100%"/></linearGradient></defs><path style="transform:translate(0, 0px); opacity:1" fill="url(#sw-gradient-0)" d="M0,162L10,162C20,162,40,162,60,138C80,114,100,66,120,66C140,66,160,114,180,129C200,144,220,126,240,105C260,84,280,60,300,45C320,30,340,24,360,24C380,24,400,30,420,42C440,54,460,72,480,69C500,66,520,42,540,39C560,36,580,54,600,78C620,102,640,132,660,147C680,162,700,162,720,150C740,138,760,114,780,102C800,90,820,90,840,102C860,114,880,138,900,132C920,126,940,90,960,72C980,54,1000,54,1020,63C1040,72,1060,90,1080,108C1100,126,1120,144,1140,132C1160,120,1180,78,1200,69C1220,60,1240,84,1260,78C1280,72,1300,36,1320,18C1340,0,1360,0,1380,27C1400,54,1420,108,1430,135L1440,162L1440,180L1430,180C1420,180,1400,180,1380,180C1360,180,1340,180,1320,180C1300,180,1280,180,1260,180C1240,180,1220,180,1200,180C1180,180,1160,180,1140,180C1120,180,1100,180,1080,180C1060,180,1040,180,1020,180C1000,180,980,180,960,180C940,180,920,180,900,180C880,180,860,180,840,180C820,180,800,180,780,180C760,180,740,180,720,180C700,180,680,180,660,180C640,180,620,180,600,180C580,180,560,180,540,180C520,180,500,180,480,180C460,180,440,180,420,180C400,180,380,180,360,180C340,180,320,180,300,180C280,180,260,180,240,180C220,180,200,180,180,180C160,180,140,180,120,180C100,180,80,180,60,180C40,180,20,180,10,180L0,180Z"/></svg>